<svg xmlns="http://www.w3.org/2000/svg" xmlns:xlink="http://www.w3.org/1999/xlink" width="378.06" height="318.29" viewBox="0 0 378.06 318.29">
  <defs>
    <style>
      .cls-1, .cls-2, .cls-3, .cls-4, .cls-5, .cls-6 {
        stroke: #231f20;
        stroke-miterlimit: 10;
      }

      .cls-1 {
        fill: url(#radial-gradient);
      }

      .cls-2 {
        fill: #f7ec27;
      }

      .cls-3 {
        fill: #ed1f24;
      }

      .cls-4 {
        fill: #3c57a7;
      }

      .cls-5 {
        fill: #5dba47;
      }

      .cls-6 {
        fill: #a44d9d;
      }

      .cls-7 {
        font-size: 18px;
        fill: #231f20;
        font-family: MyriadPro-Regular, Myriad Pro;
      }

      .cls-8 {
        letter-spacing: 0.01em;
      }

      .cls-9 {
        letter-spacing: -0.01em;
      }

      .cls-10 {
        letter-spacing: 0em;
      }

      .cls-11 {
        letter-spacing: 0.01em;
      }

      .cls-12 {
        letter-spacing: -0.01em;
      }

      .cls-13 {
        letter-spacing: 0em;
      }
    </style>
    <radialGradient id="radial-gradient" cx="189.03" cy="160.23" r="266.27" gradientTransform="translate(0 -2.18) scale(1 1.01)" gradientUnits="userSpaceOnUse">
      <stop offset="0.45" stop-color="#a8a8a8"/>
      <stop offset="0.53" stop-color="#898989"/>
      <stop offset="0.68" stop-color="#4e4e4e"/>
      <stop offset="0.81" stop-color="#242424"/>
      <stop offset="0.91" stop-color="#0a0a0a"/>
      <stop offset="0.97"/>
    </radialGradient>
  </defs>
  <g id="background_elements">
    <rect class="cls-1" width="378.06" height="318.29"/>
  </g>
  <g id="icons">
    <g id="chartexample5">
      <ellipse id="shape" class="cls-2" cx="181.06" cy="236.32" rx="50.1" ry="46.42"/>
    </g>
    <g id="chartexample4">
      <ellipse id="shape-2" data-name="shape" class="cls-3" cx="160.23" cy="59.1" rx="58.48" ry="48.85"/>
    </g>
    <g id="chartexample3">
      <rect id="shape-3" data-name="shape" class="cls-4" x="254.84" y="20.55" width="90.65" height="77.1"/>
    </g>
    <g id="chartexample2">
      <polygon id="shape-4" data-name="shape" class="cls-5" points="109.06 222.81 71.93 208.93 38.42 230.12 41.33 192.28 10.04 168.94 48.96 159.43 63.12 123.82 84.28 155.78 124.32 157.11 98.47 186.37 109.06 222.81"/>
    </g>
    <g id="chartexample1">
      <polygon id="shape-5" data-name="shape" class="cls-6" points="341.65 254.22 301.03 266.52 270.06 237.49 279.72 196.16 320.35 183.85 351.31 212.89 341.65 254.22"/>
    </g>
  </g>
  <g id="text">
    <text class="cls-7" transform="translate(97.44 142.81)"><tspan class="cls-8">S</tspan><tspan x="8.98" y="0">ome sample </tspan><tspan class="cls-9" x="104.85" y="0">t</tspan><tspan class="cls-10" x="110.7" y="0">e</tspan><tspan class="cls-11" x="119.66" y="0">x</tspan><tspan x="128.23" y="0">t</tspan></text>
    <text class="cls-7" transform="translate(221.3 171.45)"><tspan class="cls-8">M</tspan><tspan x="14.58" y="0">o</tspan><tspan class="cls-12" x="24.46" y="0">r</tspan><tspan x="30.17" y="0">e sample </tspan><tspan class="cls-9" x="101.14" y="0">t</tspan><tspan class="cls-10" x="106.99" y="0">e</tspan><tspan class="cls-11" x="115.95" y="0">x</tspan><tspan class="cls-13" x="124.52" y="0">t</tspan></text>
  </g>
</svg>
